<?xml version="1.0" encoding="UTF-8"?>
<svg xmlns="http://www.w3.org/2000/svg" xmlns:xlink="http://www.w3.org/1999/xlink" viewBox="0 0 600 600">
  <defs>
    <style>
      .cls-1 {
        fill: url(#linear-gradient-2);
      }

      .cls-1, .cls-2, .cls-3, .cls-4, .cls-5, .cls-6, .cls-7 {
        mix-blend-mode: multiply;
      }

      .cls-8 {
        mask: url(#mask-1);
      }

      .cls-9 {
        fill: #f58c63;
      }

      .cls-10 {
        fill: #212221;
      }

      .cls-11 {
        fill: #c8c6c7;
      }

      .cls-12 {
        mask: url(#mask);
      }

      .cls-13, .cls-2 {
        fill: #ffd5a0;
      }

      .cls-14 {
        fill: #f1f1f2;
      }

      .cls-3 {
        fill: #919090;
        opacity: .19;
      }

      .cls-15 {
        mask: url(#mask-2);
      }

      .cls-16 {
        filter: url(#luminosity-noclip-3);
      }

      .cls-4 {
        fill: url(#linear-gradient-4);
      }

      .cls-17 {
        isolation: isolate;
      }

      .cls-6 {
        fill: url(#linear-gradient-3);
      }

      .cls-7 {
        fill: url(#linear-gradient);
      }

      .cls-18 {
        fill: #161616;
      }

      .cls-19 {
        mask: url(#mask-3);
      }

      .cls-20 {
        filter: url(#luminosity-noclip);
      }
    </style>
    <filter id="luminosity-noclip" x="331.85" y="265.1" width="37.11" height="38.31" color-interpolation-filters="sRGB" filterUnits="userSpaceOnUse">
      <feFlood flood-color="#fff" result="bg"/>
      <feBlend in="SourceGraphic" in2="bg"/>
    </filter>
    <filter id="luminosity-noclip-2" x="331.85" y="-8492" width="37.11" height="32766" color-interpolation-filters="sRGB" filterUnits="userSpaceOnUse">
      <feFlood flood-color="#fff" result="bg"/>
      <feBlend in="SourceGraphic" in2="bg"/>
    </filter>
    <mask id="mask-1" x="331.85" y="-8492" width="37.11" height="32766" maskUnits="userSpaceOnUse"/>
    <linearGradient id="linear-gradient" x1="254.48" y1="302.43" x2="254.48" y2="273.39" gradientTransform="translate(604.89) rotate(-180) scale(1 -1)" gradientUnits="userSpaceOnUse">
      <stop offset=".01" stop-color="#000"/>
      <stop offset="1" stop-color="#fff"/>
    </linearGradient>
    <mask id="mask" x="331.85" y="265.1" width="37.11" height="38.31" maskUnits="userSpaceOnUse">
      <g class="cls-20">
        <g class="cls-8">
          <path class="cls-7" d="M368.97,303.42l-2.24-30.55s-17.68-11.55-34.12-6.48l-.75.34.75,34.72,36.36,1.97Z"/>
        </g>
      </g>
    </mask>
    <linearGradient id="linear-gradient-2" x1="254.48" y1="302.43" x2="254.48" y2="273.39" gradientTransform="translate(604.89) rotate(-180) scale(1 -1)" gradientUnits="userSpaceOnUse">
      <stop offset=".01" stop-color="#ffd5a0"/>
      <stop offset="1" stop-color="#ffd5a0"/>
    </linearGradient>
    <filter id="luminosity-noclip-3" x="267.21" y="270.7" width="37.11" height="38.31" color-interpolation-filters="sRGB" filterUnits="userSpaceOnUse">
      <feFlood flood-color="#fff" result="bg"/>
      <feBlend in="SourceGraphic" in2="bg"/>
    </filter>
    <filter id="luminosity-noclip-4" x="267.21" y="-8492" width="37.11" height="32766" color-interpolation-filters="sRGB" filterUnits="userSpaceOnUse">
      <feFlood flood-color="#fff" result="bg"/>
      <feBlend in="SourceGraphic" in2="bg"/>
    </filter>
    <mask id="mask-3" x="267.21" y="-8492" width="37.11" height="32766" maskUnits="userSpaceOnUse"/>
    <linearGradient id="linear-gradient-3" x1="335.17" y1="308.03" x2="335.17" y2="278.98" gradientTransform="translate(-49.41)" xlink:href="#linear-gradient"/>
    <mask id="mask-2" x="267.21" y="270.7" width="37.11" height="38.31" maskUnits="userSpaceOnUse">
      <g class="cls-16">
        <g class="cls-19">
          <path class="cls-6" d="M267.21,309.01l2.24-30.55s17.68-11.55,34.12-6.48l.75.34-.75,34.72-36.36,1.97Z"/>
        </g>
      </g>
    </mask>
    <linearGradient id="linear-gradient-4" x1="335.17" y1="308.03" x2="335.17" y2="278.98" gradientTransform="translate(-49.41)" xlink:href="#linear-gradient-2"/>
  </defs>
  <g class="cls-17">
    <g id="Camada_1" data-name="Camada 1">
      <g>
        <path class="cls-18" d="M284,552.11l.48,22.08-60.77-1.47c19.59-19.68,49.77-6.81,50.09-6.68l2.05.9,4.1-15.38c1.36.19,2.71.38,4.05.55Z"/>
        <path class="cls-14" d="M360.32,422.54c-.26-1-.53-2-.84-2.98-.19-.58-.37-1.15-.57-1.74,8.97,8.03,25.97,23.7,32.58,32.89,8.25,11.48,7.98,75.01,7.88,85.6-.51.24-1.04.48-1.59.73-.49-13.03-3-73.71-7.5-81.97-4.46-8.17-25.41-28.22-29.95-32.53Z"/>
        <path class="cls-18" d="M378.78,547.79l-3.2,15.47,3.43-1.55c.08-.03,7.99-3.53,18.18-3.95,12.01-.51,22,3.26,29.75,11.18l-60.05,1.45,7.29-21.42c1.58-.38,3.11-.78,4.59-1.18Z"/>
        <path class="cls-11" d="M330.78,498.05c1.28,0,2.33,1.04,2.33,2.33s-1.04,2.33-2.33,2.33-2.33-1.04-2.33-2.33,1.04-2.33,2.33-2.33Z"/>
        <path class="cls-11" d="M382.61,494.81c1.28,0,2.33,1.04,2.33,2.33s-1.04,2.33-2.33,2.33-2.33-1.04-2.33-2.33,1.04-2.33,2.33-2.33Z"/>
        <path class="cls-11" d="M373.3,451.89c1.28,0,2.33,1.05,2.33,2.33s-1.04,2.33-2.33,2.33-2.33-1.04-2.33-2.33,1.04-2.33,2.33-2.33Z"/>
        <path class="cls-14" d="M412.39,356.58c-5.78-4.82-11.44-8.88-16.96-12.19,7.57-5.5,29.56-21.7,40.08-31.85l2.02-1.62c3.53,7.89,15.66,33.45,29.77,45.22-.76.68-1.75,1.55-2.93,2.55-.24-.17-.52-.36-.84-.6-.56-.41-1.24-.91-2-1.52-.38-.31-.78-.63-1.21-.98-.42-.36-.85-.73-1.31-1.13-.93-.77-1.86-1.69-2.88-2.62-.49-.49-.99-.99-1.51-1.51-.51-.52-1.04-1.04-1.54-1.61-.51-.56-1.03-1.13-1.56-1.7-.53-.57-1.01-1.2-1.53-1.8-.5-.62-1.04-1.22-1.53-1.86-.49-.64-.97-1.29-1.46-1.94-1.01-1.27-1.86-2.66-2.77-3.97-.22-.33-.45-.66-.66-1-.2-.34-.4-.68-.61-1.02-.4-.67-.8-1.34-1.19-1.99-.19-.33-.4-.65-.58-.98-.17-.33-.34-.66-.51-.99-.34-.65-.67-1.29-.99-1.91-.68-1.23-1.19-2.45-1.68-3.57-.48-1.13-.98-2.14-1.32-3.08-.34-.94-.64-1.75-.88-2.43-.49-1.35-.77-2.12-.77-2.12,0,0,.22.79.61,2.17.2.69.43,1.53.71,2.5.26.97.69,2.01,1.09,3.18.41,1.16.84,2.44,1.43,3.72.28.65.57,1.32.86,2.01.15.34.3.69.45,1.04.16.34.34.68.51,1.03.35.69.7,1.4,1.06,2.11.18.36.36.72.54,1.08.19.36.4.7.6,1.06.83,1.4,1.59,2.88,2.52,4.25.45.7.9,1.39,1.35,2.09.45.69.95,1.35,1.42,2.02.48.66.93,1.34,1.44,1.96.5.63.99,1.25,1.47,1.87.47.62.98,1.2,1.47,1.77.49.57.97,1.13,1.44,1.67.98,1.04,1.88,2.07,2.78,2.94.45.44.87.87,1.28,1.27.42.39.82.77,1.19,1.12.75.7,1.43,1.28,1.99,1.77.06.05.12.1.18.15-5.35,4.34-12.75,9.79-19.54,12.83-10.22-3.92-20.38-9.78-29.5-17.38Z"/>
        <path class="cls-10" d="M348.85,392.64c-14.54-15.94-19.96-32.68-19.33-38.91,9.02-1.61,15.57-6.44,16.27-12.43,1.78-1.11,7.11-3.9,15.7-3.9h.03c9.97,0,26.45,3.84,48.4,22.13,18.54,15.45,41.31,23.94,60.79,23.94,9.59,0,18.38-2.06,25.47-6.36,8.4-5.09,17.09-14.72,18.76-32.95,1.19,13.26.14,29.32-7.77,43.47-9.93,17.77-28.73,29.25-55.87,34.12-56.75,10.19-88.55-13.87-102.46-29.11Z"/>
        <path class="cls-11" d="M327.54,456.34c1.28,0,2.33,1.04,2.33,2.33s-1.04,2.33-2.33,2.33-2.33-1.04-2.33-2.33,1.05-2.33,2.33-2.33Z"/>
        <path class="cls-9" d="M322.89,330.01c10.37,0,19.13,4.68,19.13,10.23s-8.76,10.22-19.13,10.22-19.13-4.68-19.13-10.22,8.76-10.23,19.13-10.23Z"/>
        <path class="cls-11" d="M321.31,428.67s0-.01,0-.02c0,0,0,0,0,0,0,.01.02.03.02.04l-.03-.03Z"/>
        <path class="cls-10" d="M134.25,329.76c-.65,5.55-.35,11.06.94,16.44,2.84,11.9,10.53,23.08,21.67,31.49,23.2,17.52,59.48,21.5,80.02-2.17,18.78-21.64,35.32-29.57,45.89-32.42,8.64-2.32,14.79-1.71,17.28-1.28.94,5.37,6.62,9.75,14.52,11.57-3.37,6.56-16.03,29.66-36.32,49.14-31.63,30.37-65.86,37.99-101.72,22.66-26.37-11.28-42.42-27.09-47.68-47.01-4.58-17.32-.2-34.97,5.4-48.42Z"/>
        <path class="cls-14" d="M95.01,178.62c6.85-6.2,17.93-20.69,31.96-39.02,32.77-42.81,82.28-107.5,116.04-112.75,22.11-3.44,65.35.38,108.06,16.9,47.14,18.23,77.4,46.22,85.2,78.82,7.45,31.13-.07,59.1-22.35,83.14-13.47,14.53-28.49,23.1-33.89,25.92-4.1-22.8-9.41-45.44-16.25-63.93.46,0,.93,0,1.39,0,.59,0,1.18,0,1.77-.04.59-.03,1.17-.05,1.75-.08.58-.05,1.15-.1,1.73-.15,1.15-.08,2.27-.25,3.37-.4,2.2-.34,4.31-.76,6.28-1.29,1.97-.5,3.8-1.09,5.47-1.69,3.33-1.22,5.97-2.51,7.76-3.52,1.8-1,2.74-1.7,2.74-1.7,0,0-.28.1-.79.28-.51.18-1.28.42-2.24.73-.96.31-2.15.63-3.5,1-1.36.36-2.9.72-4.57,1.09-1.68.35-3.5.71-5.44,1-1.93.31-3.98.54-6.09.73-2.12.16-4.3.29-6.53.29-1.11.04-2.23-.05-3.35-.05-.4-.02-.8-.04-1.21-.07-.04-.1-.08-.2-.12-.3l-.65.26c-.46-.03-.93-.06-1.39-.1-2.24-.2-4.48-.47-6.66-.87-.55-.1-1.09-.2-1.63-.29-.54-.12-1.07-.24-1.6-.35-.53-.12-1.06-.24-1.58-.36-.52-.14-1.03-.28-1.54-.42-.51-.14-1.02-.27-1.52-.41-.5-.16-.99-.31-1.47-.47-.49-.15-.97-.3-1.45-.45-.47-.16-.93-.34-1.39-.5-1.85-.63-3.54-1.37-5.14-2.01-.78-.36-1.53-.7-2.24-1.03-.72-.32-1.4-.63-2.01-.96-.62-.32-1.2-.63-1.75-.9-.27-.14-.54-.27-.79-.39-.24-.14-.48-.27-.7-.39-.88-.5-1.59-.87-2.07-1.14-.49-.26-.75-.39-.75-.39,0,0,.21.2.61.57.41.36.99.92,1.77,1.59.76.7,1.76,1.43,2.9,2.3.56.45,1.19.88,1.87,1.32.68.44,1.39.91,2.13,1.39,1.54.88,3.2,1.86,5.05,2.71.46.22.92.45,1.4.66.48.2.98.4,1.47.61.5.2,1,.41,1.51.61.52.18,1.04.36,1.57.54.53.18,1.06.36,1.6.54.55.15,1.1.3,1.65.46.56.15,1.11.3,1.68.46.57.12,1.14.24,1.72.36,2.22.5,4.52.79,6.82,1.01,9.23,24.33,15.72,56.38,20.2,86.46-6.45-2.79-22.53-8.71-44.44-9.44-16.54-.55-32.94,1.99-48.75,7.58-19.08,6.75-37.34,17.97-54.29,33.35-2.67-10.75-5.78-20.4-8.72-28.47-7.06-19.34-14.48-33.28-17.11-37.99.73-.76,1.41-1.56,2.07-2.36,1.36-1.64,2.58-3.34,3.65-5.06,1.09-1.7,1.99-3.44,2.8-5.1.77-1.68,1.44-3.29,1.94-4.82.52-1.52.9-2.94,1.19-4.21.31-1.26.47-2.38.6-3.3.03-.19.05-.38.07-.55.13,0,.25.01.37.02.59.04,1.19.03,1.8.03.6,0,1.21,0,1.82-.01,1.22,0,2.47-.02,3.72-.03.63,0,1.26,0,1.9-.01.64,0,1.27-.07,1.92-.1,1.28-.08,2.58-.17,3.89-.26.66-.05,1.31-.09,1.98-.14l1-.07c.33-.03.66-.08.99-.12,1.33-.17,2.67-.33,4.02-.5.67-.08,1.35-.17,2.03-.25.68-.08,1.36-.16,2.04-.3,2.71-.51,5.48-.93,8.21-1.59,1.37-.34,2.74-.67,4.12-1.01l2.07-.51,2.05-.61c1.36-.41,2.73-.83,4.1-1.24l1.03-.31,1.01-.36,2.02-.73c1.34-.5,2.69-.98,4.02-1.5,1.32-.56,2.63-1.12,3.94-1.68l1.96-.84c.65-.29,1.28-.62,1.92-.92,1.28-.62,2.55-1.24,3.81-1.85,5-2.6,9.78-5.42,14.19-8.46,2.24-1.47,4.35-3.05,6.4-4.61,1.04-.76,2-1.6,2.98-2.39.97-.8,1.95-1.56,2.86-2.39,3.74-3.18,7.03-6.44,9.99-9.52,2.92-3.12,5.49-6.07,7.61-8.81,2.15-2.71,3.9-5.17,5.28-7.24,1.4-2.05,2.37-3.74,3.04-4.89.66-1.15.98-1.78.98-1.78,0,0-.38.6-1.16,1.67-.77,1.08-1.94,2.62-3.48,4.55-1.53,1.93-3.48,4.2-5.78,6.74-.58.63-1.18,1.28-1.79,1.95-.63.65-1.29,1.32-1.96,2.01-.66.69-1.36,1.39-2.08,2.09-.72.7-1.45,1.43-2.21,2.15-1.56,1.41-3.13,2.93-4.87,4.38-.87.73-1.71,1.51-2.62,2.24-.91.74-1.83,1.48-2.76,2.24-3.78,2.97-7.87,5.95-12.29,8.77-.55.35-1.1.71-1.66,1.07-.55.36-1.11.71-1.69,1.04-1.15.67-2.3,1.34-3.46,2.02-1.15.7-2.37,1.29-3.57,1.93-1.21.62-2.39,1.31-3.63,1.9-1.24.59-2.48,1.18-3.73,1.77-.63.29-1.24.6-1.88.88l-1.92.8c-1.28.53-2.56,1.07-3.85,1.61-1.3.5-2.62.95-3.92,1.43l-1.96.72-.98.36-1,.31c-1.33.41-2.66.83-3.98,1.24l-1.99.62-2.01.51c-1.34.34-2.67.68-4,1.02-1.32.37-2.68.58-4.01.86-1.33.27-2.66.55-3.98.82-.66.15-1.32.25-1.98.34-.66.1-1.32.2-1.98.3-1.31.2-2.62.39-3.91.59-2.59.35-5.17.5-7.67.79-.63.06-1.25.15-1.87.17-.62.03-1.24.06-1.86.09-1.23.06-2.45.12-3.65.17-.6.03-1.2.06-1.79.08-.59.03-1.18.06-1.77.04-1.17,0-2.32-.01-3.45-.02-1.13,0-2.25,0-3.34,0-.55,0-1.09,0-1.63,0-.54-.03-1.07-.06-1.59-.08-4.2-.25-8.07-.34-11.48-.76-3.41-.36-6.41-.55-8.84-.97-2.44-.36-4.37-.6-5.68-.78-1.31-.18-2.02-.27-2.02-.27,0,0,.69.17,1.97.48,1.29.31,3.18.78,5.59,1.33,2.4.62,5.38,1.09,8.78,1.68,1.71.27,3.51.65,5.45.83,1.93.21,3.96.44,6.08.67.53.06,1.07.12,1.61.17.54.03,1.09.06,1.65.09,1.11.06,2.24.12,3.39.19.81.04,1.64.08,2.48.12-.05.13-.1.26-.15.4-.32.85-.75,1.87-1.25,3.03-.5,1.16-1.13,2.43-1.84,3.8-.7,1.37-1.54,2.81-2.44,4.31-.94,1.48-1.94,3.03-3.08,4.56-.55.77-1.17,1.52-1.76,2.3-.31.37-.63.75-.95,1.13-.31.38-.63.76-.97,1.13-.33.37-.67.74-1,1.12-.34.37-.7.72-1.04,1.09-.68.74-1.42,1.43-2.16,2.12-.71.72-1.5,1.35-2.25,2.03-.77.65-1.55,1.28-2.32,1.91-.8.6-1.59,1.2-2.37,1.79-.81.56-1.6,1.11-2.39,1.65-.81.51-1.6,1.02-2.38,1.51-.78.49-1.58.91-2.33,1.37-.75.47-1.52.84-2.25,1.24-.73.39-1.43.79-2.14,1.12-1.39.67-2.66,1.34-3.82,1.84-1.16.51-2.16,1.01-3.01,1.35-.85.35-1.51.65-1.96.85-.45.21-.69.31-.69.31,0,0,.26-.04.75-.1.49-.08,1.21-.17,2.12-.33.92-.13,2.01-.38,3.27-.69,1.27-.27,2.66-.7,4.19-1.17.77-.22,1.54-.54,2.35-.83.81-.31,1.65-.61,2.48-1,.84-.38,1.71-.75,2.57-1.18.86-.44,1.73-.91,2.62-1.38.86-.52,1.74-1.05,2.63-1.59.86-.58,1.73-1.17,2.6-1.78.84-.65,1.71-1.28,2.53-1.97.63-.56,1.28-1.11,1.91-1.68,3.49,6.38,12.59,24.09,20.19,47.98-77.32,39.32-114.92-3.24-124.63-17.26-8.73-12.62-13.93-27.45-14.64-41.76-.68-13.81,3.12-25.53,10.42-32.15Z"/>
        <path class="cls-14" d="M248.74,428.06c11.1-5.26,21.91-12.89,32.24-22.83,21.92-21.07,35.09-46.25,37.55-51.17,1.41.16,2.86.25,4.35.25.94,0,1.86-.04,2.77-.1-.26,8.33,5.95,25.24,20.35,41.03,11.1,12.17,24.72,21.13,40.48,26.63,3.83,1.34,7.76,2.45,11.79,3.36,1.8,10.77,9.93,61.98,9.35,106.69-.98.62-2.88,1.74-5.69,3.15.12-13.9.16-73.99-8.37-85.85-8.11-11.29-30.66-31.35-37.05-36.94-.78-1.54-1.64-3.04-2.57-4.48-3.12-4.85-6.92-9.16-10.98-13.12-2.05-1.97-4.14-3.87-6.32-5.68-2.18-1.8-4.39-3.57-6.72-5.18-1.15-.82-2.33-1.62-3.54-2.37-1.22-.74-2.43-1.46-3.85-2.01-.18-.07-.37-.13-.59-.18-.11-.02-.22-.05-.37-.05-.06,0-.14,0-.24,0l-.14.02c-.06.01-.14.05-.2.08l-.1.05s-.15.12-.11.08l-.05.04s-.05.04-.11.11c-.11.13-.23.3-.26.41-.11.24-.17.47-.2.69-.12.87.02,1.61.17,2.35.34,1.45.85,2.81,1.45,4.12.47,1.02.99,2.02,1.53,3-.3.21-.64.44-1.03.71-1.51,1.04-3.69,2.5-6.33,4.23-2.64,1.72-5.74,3.7-9.11,5.75-1.67,1.05-3.44,2.06-5.21,3.13-1.79,1.03-3.62,2.09-5.44,3.14-1.84,1.01-3.67,2.06-5.51,3.02-1.84.96-3.62,1.95-5.4,2.81-1.77.87-3.46,1.77-5.11,2.51-1.64.76-3.18,1.51-4.63,2.14-1.45.63-2.78,1.2-3.96,1.71-1.18.51-2.24.88-3.09,1.23-1.72.67-2.71,1.05-2.71,1.05,0,0,1-.33,2.76-.9.88-.29,1.95-.61,3.16-1.05,1.21-.44,2.58-.94,4.06-1.48,1.49-.55,3.07-1.22,4.76-1.88,1.7-.65,3.44-1.46,5.27-2.23,1.83-.77,3.68-1.66,5.58-2.52,1.9-.86,3.79-1.81,5.7-2.72,1.89-.95,3.78-1.9,5.65-2.84,1.84-.97,3.68-1.9,5.42-2.85,3.5-1.87,6.74-3.69,9.5-5.27,2.76-1.58,5.04-2.94,6.63-3.9.36-.22.67-.41.96-.59.27.41.53.83.8,1.23,1.41,2.09,2.94,4.1,4.53,6.05-1.05,1.71-2.07,3.42-3.06,5.16-1.15,1.99-2.27,4.01-3.35,6.05-1.08,2.04-2.13,4.1-3.12,6.2-.99,2.11-1.94,4.23-2.73,6.53-.19.58-.38,1.17-.53,1.79-.15.63-.29,1.28-.32,2.09,0,.42,0,.87.19,1.49.12.33.23.64.6,1.07l.14.16.08.08.19.18c.13.11.27.22.41.33.14.1.24.14.37.22.24.14.48.23.72.3.48.16.94.21,1.37.23,1.7.03,2.97-.45,4.18-.95,1.19-.52,2.28-1.14,3.31-1.81,1.48-.97,2.83-2.07,4.11-3.24l-.72,2.73c-.34,1.28-.64,2.56-.96,3.85-.63,2.57-1.23,5.14-1.8,7.74-.11.48-.2.97-.3,1.45-.03.01-.05.02-.07.03-.44.17-1.08.41-1.89.72-1.64.62-3.99,1.48-6.84,2.46-2.84.99-6.18,2.08-9.78,3.2-1.8.56-3.67,1.1-5.56,1.67-1.91.53-3.83,1.1-5.78,1.6-1.95.5-3.89,1.04-5.81,1.48-1.93.46-3.82.93-5.67,1.3-1.84.39-3.63.79-5.33,1.09-1.7.3-3.3.65-4.8.86-1.49.23-2.86.44-4.07.63-1.22.17-2.28.28-3.16.39-1.75.21-2.75.33-2.75.33,0,0,1.01-.06,2.77-.16.88-.06,1.95-.1,3.18-.2,1.23-.12,2.61-.25,4.12-.39,1.51-.12,3.13-.37,4.86-.57,1.73-.2,3.54-.49,5.41-.77,1.88-.27,3.8-.62,5.77-.97,1.97-.33,3.94-.75,5.93-1.14,1.99-.39,3.96-.85,5.91-1.26,1.94-.46,3.85-.89,5.7-1.35,3.69-.91,7.12-1.81,10.04-2.64,2.93-.82,5.35-1.54,7.05-2.07l-.03.28c-.02.14-.03.38-.04.59v.65c.04.43.05.83.18,1.27.17.85.65,1.75,1.33,2.42.68.68,1.58,1.12,2.43,1.27.85.17,1.67.17,2.43.05.77-.1,1.49-.32,2.18-.56,2.75-1.04,4.94-2.85,6.81-4.84.92-1.02,1.77-2.08,2.52-3.21.73-1.14,1.42-2.3,2-3.52.36-.71.67-1.43.96-2.16-.18.94-.36,1.88-.5,2.84-.2,1.41-.35,2.83-.41,4.29-.02,1.46-.01,2.93.52,4.53.07.2.14.4.26.61l.16.3.22.3c.13.2.34.39.55.57.09.1.23.16.35.24l.19.11.1.05c.07.02-.08-.02.16.06h.03s.25.09.25.09c.05.01.07.03.14.04l.23.04c.16.02.32.04.48.05.13,0,.25-.01.38-.02.51-.04.96-.19,1.37-.36,1.63-.73,2.73-1.91,3.68-3.13,1.85-2.48,2.91-5.34,3.56-8.23.64-2.89.87-5.85.74-8.77-.07-1.82-.27-3.64-.55-5.43,7.17,6.91,23.15,22.66,26.79,29.33,3.79,6.94,6.45,60.14,7.23,81.83-6.5,2.72-15.42,5.77-26.78,8.21-24.39,5.22-65.3,8.53-122.14-5.14.54-11.49,3.75-82.07,2.41-113.13ZM382.61,503.31c3.4,0,6.17-2.77,6.17-6.17s-2.77-6.17-6.17-6.17-6.17,2.77-6.17,6.17,2.77,6.17,6.17,6.17ZM373.3,460.39c3.4,0,6.17-2.77,6.17-6.17s-2.77-6.17-6.17-6.17-6.17,2.77-6.17,6.17,2.77,6.17,6.17,6.17ZM330.78,506.55c3.4,0,6.17-2.77,6.17-6.17s-2.77-6.17-6.17-6.17-6.17,2.77-6.17,6.17,2.77,6.17,6.17,6.17ZM327.54,464.84c3.4,0,6.17-2.77,6.17-6.17s-2.77-6.17-6.17-6.17-6.17,2.77-6.17,6.17,2.77,6.17,6.17,6.17Z"/>
        <path class="cls-13" d="M438.67,305.08c-2.16-3.84-5.2-13.09-3.96-16.08.12-.29.15-.29.34-.29,3.21,0,7.82,8.9,9.93,14.91l.55,1.56,7.18-1.35s0,0,0,0c.6.54,1.5,1.36,2.58,2.39,2.01,1.9,4.62,4.51,7.13,7.22,1.26,1.35,2.49,2.74,3.62,4.05.57.65,1.11,1.3,1.61,1.91.51.61.99,1.19,1.42,1.74.43.55.83,1.05,1.18,1.49.34.45.64.85.88,1.17.49.65.77,1.02.77,1.02,0,0-.23-.4-.63-1.11-.2-.35-.44-.79-.72-1.28-.29-.49-.62-1.04-.98-1.64-.35-.6-.76-1.25-1.19-1.92-.43-.68-.88-1.4-1.37-2.12-.96-1.47-2.01-3.01-3.1-4.54-2.17-3.06-4.46-6.02-6.24-8.21-.89-1.1-1.65-2-2.18-2.63-.07-.08-.13-.15-.19-.22.68-4.53,2.87-14.33,6.77-16.76.86-.53,1.72-.62,2.72-.27.87.3,1.49.91,1.95,1.89,1.49,3.22,1.09,9.26-.6,14.49-.94,2.9-1.74,5.61-2.2,7.21-.28.98.46,2.02,1.48,1.95.42-.03.77-.24,1.02-.76,1.19-2.5,1.98-3.81,3.42-7.37,1.42-3.39,3.15-6.26,4.95-7.01.46-.19,1.11-.32,2.11.33,4.84,3.14.38,16.04-2.52,22.56v.02c-.4.78-.1,1.76.69,2.11,1.24.55,2.45-.62,2.72-1.23,2.66-5.24,4.54-5.02,4.9-5.05.24-.02.46.07.62.19-.05,17.94-14.31,33.03-17.41,36.1-14.07-14.66-27.26-44.5-27.26-44.5Z"/>
        <path class="cls-13" d="M354.89,416.71c.96,2.53,1.76,5.15,2.36,7.81.64,2.64,1.07,5.33,1.22,8.02.15,2.69.05,5.39-.42,8-.23,1.31-.58,2.59-1.03,3.82-.46,1.22-1,2.42-1.71,3.47-.7,1.04-1.57,2-2.5,2.47-.23.11-.45.2-.64.22l-.14.03s-.03,0-.05,0l-.03.02s-.08-.02-.11-.02l-.21-.05-.04-.02s-.06,0-.09-.04c-.06-.05-.13-.08-.19-.17l-.1-.11-.09-.16c-.07-.09-.13-.22-.18-.35-.46-1.04-.62-2.43-.7-3.77-.08-1.36-.07-2.74,0-4.13.13-2.78.41-5.57.79-8.35l.22-1.61-1.3,3.35c-.27.6-.52,1.2-.8,1.79-.56,1.17-1.16,2.33-1.85,3.42-.67,1.11-1.43,2.15-2.23,3.15-.82.98-1.67,1.93-2.6,2.79-.94.85-1.93,1.62-2.97,2.28-1.04.66-2.15,1.2-3.27,1.54-1.11.32-2.28.46-3.15.2-.45-.11-.76-.33-.99-.59-.22-.27-.41-.58-.46-1.03-.06-.2-.03-.46-.06-.69l.03-.33c0-.11,0-.2.04-.39l.09-.49.02-.12v-.06s.02-.03.02-.03v-.02s.02-.09,0,.07l.06-.24.22-.95c.3-1.26.63-2.53.96-3.79.65-2.53,1.35-5.06,2.06-7.58,1.44-5.04,2.87-10.1,4.4-15.12l3.89-12.78-7.56,11.06c-1.21,1.77-2.58,3.47-4.09,5.01-1.51,1.55-3.17,2.96-4.91,4.16-.87.6-1.77,1.13-2.67,1.55-.88.41-1.83.69-2.44.68-.14,0-.26-.02-.32-.04,0,0,0,0-.02,0,0,0,0-.02,0-.02,0-.34.07-.82.18-1.3.11-.49.25-1,.4-1.51.64-2.06,1.5-4.14,2.4-6.2.91-2.06,1.88-4.11,2.87-6.16,1-2.04,2.02-4.07,3.05-6.11,1.04-2.03,2.09-4.06,3.15-6.06l.47-.89-.63-.66c-1.91-2.01-3.74-4.09-5.44-6.28-1.68-2.19-3.27-4.48-4.52-6.92-.62-1.22-1.19-2.47-1.52-3.75-.16-.63-.28-1.3-.21-1.83.01-.13.04-.25.08-.33.02-.07.02-.03,0-.05,0,0,0-.01.01-.02.03,0,.06,0,.1.01.13.02.28.07.43.11,1.23.42,2.46,1.14,3.64,1.84,1.19.72,2.35,1.48,3.49,2.28,2.26,1.64,4.45,3.37,6.53,5.23,2.07,1.87,4.06,3.83,5.92,5.9,3.74,4.13,7.01,8.65,9.7,13.43.62,1.13,1.22,2.27,1.77,3.43h0s.01.02.02.02c.62,1.29,1.2,2.6,1.7,3.94Z"/>
        <path class="cls-13" d="M245.07,361.44c-3.44,3.21-6.98,6.85-10.6,10.98-8.19.77-14.26-5.48-15.46-12.17-.38-2.1-.97-9.08,7.1-10.85,12.9-2.84,17.86,8.85,18.95,12.04ZM238.46,358.01c-.35-.42-.78-.82-1.23-1.22-.23-.19-.48-.38-.73-.57-.24-.2-.51-.37-.79-.53-.27-.16-.55-.34-.83-.49l-.89-.4c-.59-.28-1.23-.44-1.85-.61-.31-.1-.62-.15-.93-.18-.31-.04-.62-.09-.92-.11-.6-.07-1.19,0-1.74,0-.55,0-1.06.14-1.53.23-.47.11-.89.18-1.25.34-.36.13-.67.27-.92.38-.5.22-.77.38-.77.38,0,0,.32.06.86.12.27.03.59.07.95.09.36,0,.77.12,1.2.17.43.07.9.08,1.37.22.48.12.98.17,1.48.32.5.16,1.03.25,1.53.44.5.2,1.04.33,1.53.58l.76.31c.24.13.49.25.73.37.5.22.94.53,1.41.77.44.29.88.54,1.28.82.41.28.79.54,1.14.81.36.25.67.51.97.72.27.23.54.42.74.6.42.35.66.54.66.54,0,0-.05-.32-.25-.84-.09-.26-.23-.57-.4-.92-.18-.33-.38-.73-.65-1.12-.26-.4-.58-.81-.94-1.23Z"/>
        <path class="cls-13" d="M233.35,289.71c38.52-35.71,76.66-42.2,101.89-41.35,24.49.82,41.78,8.48,45.23,10.13,5.48,38.23,7.73,72.42,8.31,82.24-9.55-4.77-18.66-7.17-27.24-7.17-.14,0-.27,0-.41,0-7.62.07-12.92,2.1-15.81,3.59-2.24-6.36-11.29-10.98-22.44-10.98-3.56,0-6.9.47-9.88,1.32,0,0-7.24,1.64-12.11,8.58-.3.6-.53,1.23-.69,1.87-3.13-.49-9.46-.92-18.1,1.35-8.38,2.2-20.27,7.38-33.96,19.36-1.53-3.76-4.42-8.19-8.87-10.93.83-20.7-1.92-40.65-5.94-58.02ZM331.85,266.73s.62.05,1.63.05c.25,0,.54.02.84.02.3,0,.62,0,.97,0,.69.04,1.45.01,2.28.05.82.03,1.71.06,2.64.09.47.03.94.06,1.43.07.49.04.98.05,1.49.06.51.02,1.02.04,1.55.03.52.03,1.06.01,1.6.04,1.08.04,2.18.12,3.27.3,1.09.16,2.18.38,3.25.62,1.06.26,2.12.51,3.12.81,1.01.28,1.97.62,2.89.93.91.32,1.78.64,2.56.96,1.58.63,2.85,1.26,3.75,1.69.9.44,1.39.72,1.39.72l.22-.31s-1.75-1.53-4.74-3.33c-1.49-.91-3.28-1.89-5.29-2.78-1-.45-2.05-.89-3.15-1.27-1.09-.38-2.22-.75-3.36-1.05-1.14-.32-2.3-.6-3.45-.86-.58-.13-1.15-.23-1.73-.32-.57-.09-1.15-.12-1.71-.18-.57-.02-1.12-.02-1.67,0-.54.03-1.08.09-1.59.15-1.03.14-2,.33-2.87.58-.88.22-1.66.54-2.34.8-.67.31-1.25.58-1.71.85-.91.55-1.39.92-1.39.92l.12.37ZM269.55,278.85s.49-.28,1.39-.72c.9-.43,2.17-1.06,3.75-1.69.79-.32,1.65-.64,2.56-.96.92-.31,1.88-.64,2.89-.93,1.01-.3,2.06-.56,3.12-.81,1.07-.24,2.15-.47,3.25-.62,1.09-.17,2.19-.25,3.27-.3.54-.03,1.07,0,1.6-.04.53,0,1.04-.02,1.55-.03.51,0,1-.02,1.49-.06.49-.01.96-.04,1.43-.07.94-.03,1.83-.06,2.64-.09.83-.04,1.59-.01,2.28-.05.35,0,.67,0,.97,0,.3,0,.59-.03.84-.02,1.01,0,1.63-.05,1.63-.05l.12-.37s-.48-.37-1.39-.92c-.46-.27-1.04-.54-1.71-.85-.68-.27-1.46-.59-2.34-.8-.87-.25-1.84-.44-2.87-.58-.52-.06-1.05-.11-1.59-.15-.54-.02-1.1-.01-1.67,0-.56.05-1.14.09-1.71.18-.57.09-1.15.2-1.73.32-1.15.26-2.31.54-3.45.86-1.15.3-2.27.67-3.36,1.05-1.09.39-2.15.82-3.15,1.27-2.01.89-3.8,1.88-5.29,2.78-2.99,1.79-4.74,3.33-4.74,3.33l.22.31Z"/>
        <path class="cls-3" d="M377.87,224.22s27.87-12.49,43.25-40.37c15.38-27.87-15.19-29.91-28.12-24-12.93,5.91-45.35,3.36-54.27-29.57,0,0-66.9,58.98-157.56,57.72,0,0,11.58,23.57-6.86,47.19,0,0-17.03,49.41,49.54,34.59l-13.2-39.8s84.58-1.92,116.29-51.9c0,0,42.29,5.77,50.94,46.13Z"/>
        <g class="cls-5">
          <path class="cls-3" d="M134.25,329.76c-16.75,52.53,26.15,91.43,76.13,93.57,49.98,2.14,96.11-68.77,96.11-68.77-4.27-5.98-4.27-13.24-4.27-13.24l2.14-2.56s9.4,8.12,20.08,8.97c10.68.85,24.35-8.97,24.35-8.97,0,0-34.6,63.22,70.06,74.33,102.82,10.91,97.2-73.84,96.97-76.81,9.75,110.97-116.2,88.34-116.2,88.34l2.14,10.68c-16.77-.65-31.13-5.66-42.99-12.3-2.24-7.56-11.47-32.5-38.12-43.36,0,0-.16-.07-.45-.18-.08-.03-.15-.06-.23-.09-.52-.21-1.31-.54-2.26-.92-.16-.07-.31-.13-.47-.19-.08-.03-.17-.07-.25-.1-1.11-.45-2.12-.86-3.03-1.24-.69-.28-1.37-.56-2.04-.83-.61-.25-1.16-.47-1.65-.67-.66-.27-1.28-.52-1.8-.73-.05-.02-.09-.04-.14-.06-.11-.05-.22-.09-.32-.13-.14-.06-.26-.11-.38-.15-.05-.02-.11-.04-.16-.06-.17-.07-.32-.13-.44-.18-.19-.08-.33-.13-.39-.16,0,0,0,0-.01,0-.04-.02-.04-.02,0,0,0,0,0,0,.01,0,.06.03.19.08.39.16.12.05.27.11.44.18.05.02.1.04.16.06.12.05.24.1.38.15.1.04.21.08.32.13.05.02.09.04.14.06.49.2,1.09.44,1.8.73.52.21,1.08.44,1.65.67.62.25,1.3.53,2.04.83,1.05.43,2.09.85,3.03,1.24.08.03.17.07.25.1.16.07.32.13.47.19.71.29,1.46.6,2.26.92.08.03.16.07.23.09.15.06.29.12.45.18,0,0,1.07,3.93,3.31,11.46.29.96.53,1.9.74,2.8-4.7-5.81-7.09-9.85-7.09-9.85-17.94,33.75-70.06,55.53-70.06,55.53v-12.82c-9.82,7.26-40.58,14.95-77.32-2.56-71.1-33.9-35.97-94.42-35.97-94.42Z"/>
          <path class="cls-3" d="M515.81,336.26s0-.05,0-.08c0,0,0,.03,0,.08Z"/>
        </g>
        <path class="cls-2" d="M380.66,260.96s-67.79-34.99-139.97,27.38c0,0,10.33,29.88,7.52,70.05l-10.28-9.42s-.45-40.55-5.99-59.56c0,0,66.22-67.81,148.72-32.57v4.13Z"/>
        <path class="cls-2" d="M242.42,365.01s-4.83-14.04-18.33-9.8c-13.5,4.24,12.4,18.38,18.33,9.8Z"/>
        <path class="cls-2" d="M354.07,411.58s-3.52,28.72-22.11,40.31c0,0,10.74-1.39,17.94-14.36,0,0-1.6,24.67,7.53,8.65,9.13-16.02-3.36-34.6-3.36-34.6Z"/>
        <path class="cls-2" d="M438.9,307.34s21.37,30.22,26.71,30.22,18.8-20.83,18.8-20.83c0,0-1.92,23.08-20.5,35.69,0,0-22.66-33.76-25-45.07Z"/>
        <g class="cls-12">
          <path class="cls-1" d="M368.97,303.42l-2.24-30.55s-17.68-11.55-34.12-6.48l-.75.34.75,34.72,36.36,1.97Z"/>
        </g>
        <g class="cls-15">
          <path class="cls-4" d="M267.21,309.01l2.24-30.55s17.68-11.55,34.12-6.48l.75.34-.75,34.72-36.36,1.97Z"/>
        </g>
        <path class="cls-10" d="M92.32,175.66c6.58-5.96,18.12-21.03,31.48-38.49,35.14-45.9,83.26-108.77,118.61-114.27,22.62-3.52,66.72.34,110.12,17.12,22.3,8.62,40.98,19.37,55.54,31.95,16.91,14.61,27.72,31.33,32.11,49.68,4.28,17.87,3.75,35.04-1.58,51.03-4.26,12.78-11.57,24.81-21.72,35.76-14.84,16.01-31.13,24.85-35.95,27.25,8.32,47.99,11.34,95.75,11.91,105.63,7.08-5.15,29.67-21.78,39.97-31.74l2.67-2.14c-2.64-4.51-6.44-15.18-4.46-19.97.73-1.75,2.2-2.76,4.04-2.76,6.24,0,11.2,11.02,13.09,15.91l3.29-.62c.74-4.66,3.03-15.56,8.53-18.98,1.88-1.17,4.01-1.39,6.15-.65,1.91.67,3.35,2.01,4.27,3.99.88,1.89,1.26,4.44,1.14,7.56.58-.46,1.17-.82,1.77-1.07,1.34-.55,3.43-.88,5.82.67,4.15,2.7,5.02,8.89,2.5,17.91.25-.06.51-.1.77-.13,2.38-.21,3.91,1.37,4.33,1.86.19.22.33.48.42.77l.13.43c.06.19.09.38.09.57.23,19.72-15.01,35.95-18.41,39.31.88.78,1.75,1.49,2.58,2.1l2,1.48-1.81,1.71c-.51.48-12.41,11.69-24.33,18.16,18.15,5.73,35.16,5,46.74-2.01,15.63-9.47,20.68-29.28,14.62-57.31l-.03-.14,3.95-1.19.05.14c.67,1.7,16.12,41.93-2.02,74.39-10.54,18.88-30.28,31.03-58.67,36.13-9.35,1.68-18.5,2.53-27.21,2.53-7.67,0-15.17-.66-22.29-1.97,2.36,14.44,9.8,63.67,9.11,106.75l-.02,1.06-.86.61c-.37.27-9.37,6.54-27.65,12.05l-2.06,9.97c3.63-1.19,9.25-2.63,15.87-2.93,14.63-.64,27.04,4.78,35.86,15.69l2.66,3.29-73.93,1.79h-.23s8.28-24.33,8.28-24.33c-14.38,3.1-30.18,4.66-46.97,4.66-11.08,0-22.7-.7-34.54-2.09l.56,25.52-73.03-1.77h-.33s2.66-3.3,2.66-3.3c8.83-10.92,21.61-16.24,36.96-15.41,8.14.44,14.91,2.47,18.31,3.69l2.77-10.37c-10.48-1.62-21.27-3.78-32.08-6.42l-1.67-.41.08-1.73c.16-3.2,3.77-78.66,2.55-112.58-3.02,1.27-6.06,2.36-9.04,3.25-7.87,2.36-15.95,3.55-24.04,3.55-12.1,0-24.47-2.67-36.78-7.93-27.58-11.79-44.39-28.51-49.99-49.69-5.1-19.3.33-38.69,5.78-51.56,5.86-13.83,12.84-23.08,13.13-23.46l.09-.12,3.39,2.39-.08.13c-18.99,29.07-6.26,54.15,11.98,67.93,19.61,14.81,51.18,20.43,71.27,1.82-7.7-1.11-14.03-7.38-15.46-15.35-1.39-7.73,2.61-13.81,10.19-15.47,3.59-.79,6.98-.7,10.09.27.68-22.63-2.84-46.86-10.45-72.03-21.6,10.88-42.04,16.39-60.73,16.39-6.54,0-12.96-.68-19.09-2.02-25.43-5.56-40.77-21.18-49.16-33.3-19-27.46-20.65-63.7-3.61-79.15ZM426.57,568.79c-7.68-7.71-17.56-11.36-29.37-10.87-10.12.42-18.04,3.91-18.12,3.94l-3.72,1.67,3.21-15.53c-1.4.38-2.84.75-4.26,1.09l-7.19,21.12,59.45-1.44ZM203.61,222.06c-.32.29-.64.56-.96.84-.27.23-.54.46-.8.7-.55.47-1.13.91-1.69,1.33-.28.21-.57.43-.85.65-.87.62-1.76,1.22-2.61,1.79l-2.64,1.59-.28.15c-.79.42-1.57.84-2.35,1.23-.68.34-1.36.64-2.02.93l-.56.25c-.71.33-1.42.6-2.11.86l-.39.15c-.24.09-.47.17-.7.26-.57.21-1.11.42-1.66.57-1.55.48-2.94.9-4.2,1.17-1.13.27-2.3.55-3.28.69-.63.11-1.16.19-1.6.25-.2.03-.38.05-.53.08l-1.83.25,1.69-.77c.15-.06.32-.14.5-.22.4-.18.88-.39,1.46-.63.5-.2,1.07-.46,1.68-.74.42-.19.86-.4,1.33-.6.78-.33,1.6-.74,2.48-1.18.43-.22.88-.44,1.34-.66.5-.23,1-.5,1.52-.79.2-.11.4-.22.61-.33.23-.12.46-.25.7-.37.51-.27,1.04-.55,1.55-.86.32-.19.65-.38.98-.57.44-.25.9-.52,1.35-.8l2.37-1.51,2.38-1.65,2.36-1.78c.31-.25.62-.51.93-.76.47-.38.93-.76,1.39-1.15.27-.24.54-.48.82-.72.48-.42.97-.85,1.43-1.31l.22-.21c.65-.61,1.32-1.25,1.93-1.91.16-.17.31-.33.47-.49.19-.2.38-.39.57-.59l1-1.12c.35-.38.68-.78.96-1.12l.94-1.12c.23-.3.46-.6.7-.9.36-.45.72-.92,1.06-1.4,1.17-1.57,2.2-3.17,3.07-4.54.83-1.39,1.71-2.88,2.43-4.31.82-1.59,1.39-2.76,1.83-3.79.56-1.28.96-2.24,1.25-3.02l.07-.19-7.3-.39-7.68-.84c-1.39-.13-2.71-.36-3.99-.58-.5-.09-.99-.17-1.47-.25l-1.41-.24c-2.85-.48-5.32-.9-7.39-1.44-1.65-.38-3.06-.72-4.19-.99-.53-.13-1-.24-1.41-.34l-1.97-.48.06-.31,2.02.27c.43.06.92.12,1.47.2,1.14.15,2.57.34,4.22.59,1.66.28,3.55.46,5.74.67.98.09,2.01.19,3.09.3,2.41.3,5.07.43,7.89.57,1.16.06,2.36.12,3.58.19l1.58.08h1.63s3.34,0,3.34,0l3.46.02c.58.02,1.18-.01,1.75-.04l7.3-.34c.4-.02.8-.06,1.19-.1.22-.02.45-.05.67-.07,1.06-.12,2.16-.22,3.22-.32,1.45-.13,2.96-.27,4.44-.47l5.9-.88c.65-.09,1.31-.19,1.96-.34l3.98-.82c.41-.09.83-.17,1.24-.25.91-.17,1.85-.35,2.76-.61l6.01-1.53,6.96-2.16,2.94-1.08c.47-.17.94-.34,1.41-.51.83-.29,1.68-.6,2.51-.92l5.76-2.41c.41-.18.8-.37,1.2-.56.22-.11.45-.21.67-.32l3.73-1.77c.75-.36,1.49-.76,2.21-1.15.47-.25.94-.51,1.41-.75.36-.19.72-.38,1.09-.57.82-.43,1.67-.87,2.47-1.36l3.47-2.02c.5-.28,1.02-.6,1.68-1.04l1.66-1.07c4-2.55,8.02-5.41,12.27-8.75l2.76-2.24c.52-.42,1.03-.87,1.52-1.3.37-.32.73-.64,1.1-.95,1.24-1.04,2.41-2.11,3.54-3.15.45-.41.89-.82,1.33-1.22.49-.47.97-.93,1.43-1.39.26-.26.52-.51.78-.76.7-.68,1.4-1.38,2.08-2.08l1.95-2.01,1.79-1.95c2.33-2.58,4.27-4.84,5.77-6.73,1.35-1.68,2.58-3.29,3.48-4.54.76-1.06,1.15-1.66,1.15-1.66l.28.16s-.33.65-.99,1.79l-.1.16c-.68,1.17-1.62,2.77-2.95,4.73-1.61,2.43-3.39,4.87-5.28,7.25-2.03,2.62-4.52,5.5-7.62,8.82-2.3,2.4-5.84,5.99-10,9.52-.63.58-1.32,1.13-1.98,1.67-.3.24-.59.48-.89.73-.35.28-.69.56-1.04.85-.63.52-1.27,1.05-1.95,1.54-1.82,1.37-4.08,3.08-6.41,4.61-4.2,2.9-8.98,5.75-14.21,8.47l-3.82,1.85c-.23.11-.45.22-.68.33-.41.2-.82.4-1.25.59l-5.91,2.52c-.87.34-1.76.67-2.62.98-.47.17-.94.34-1.41.52l-3.04,1.09-7.18,2.17-6.19,1.52c-1.92.46-3.88.81-5.77,1.15-.82.15-1.64.29-2.45.44-.68.14-1.37.22-2.05.3l-6.4.8c-.22.03-.43.06-.65.08l-6.87.47c-.23.01-.45.03-.68.04-.41.03-.83.06-1.24.06l-7.44.05c-.59,0-1.2.02-1.81-.03h-.22c-.02.12-.03.26-.05.4-.13.93-.3,2.06-.6,3.32-.31,1.39-.71,2.81-1.19,4.22-.46,1.39-1.1,2.97-1.95,4.84-.74,1.52-1.66,3.32-2.81,5.11-1.12,1.78-2.35,3.49-3.66,5.08l-.05.06c-.62.74-1.26,1.51-1.95,2.23,2.86,5.13,10.11,18.87,17.06,37.91,3.39,9.28,6.3,18.78,8.66,28.22,16.93-15.31,35.14-26.48,54.14-33.2,15.82-5.59,32.24-8.14,48.81-7.59,21.85.74,38.03,6.69,44.23,9.34-5.39-36.1-12.16-65.05-20.12-86.05-1.89-.19-4.35-.47-6.74-1.01l-1.72-.37-3.34-.92-3.18-1.08-2.98-1.22c-.38-.17-.75-.35-1.12-.52l-.29-.14c-1.65-.75-3.11-1.59-4.52-2.4l-.55-.32-2.13-1.39c-.59-.39-1.27-.85-1.87-1.33-.25-.19-.5-.38-.74-.56-.85-.64-1.58-1.2-2.17-1.74-.53-.46-.98-.87-1.34-1.2-.16-.15-.31-.28-.44-.4l-1.5-1.39,1.82.96c.16.09.33.18.54.29.42.23.94.51,1.54.85l.69.39.79.39c.36.17.73.37,1.12.57.21.11.42.22.64.33.65.35,1.38.68,2.01.96l2.23,1.03c.41.17.83.34,1.26.51,1.23.51,2.5,1.03,3.87,1.5.21.07.41.15.62.22.26.09.51.19.77.28l2.92.92,3.06.82,3.18.71,1.63.29c1.96.36,4.13.65,6.64.87.45.04.9.07,1.35.1l.76-.3.14.36c.37.02.74.04,1.1.06h0c.46,0,.92.02,1.38.03.64.02,1.31.04,1.97.02,2.33.01,4.6-.14,6.51-.29,2.54-.23,4.42-.46,6.08-.73,2.02-.3,3.88-.67,5.43-1,1.66-.36,3.2-.72,4.56-1.08l.86-.24c1.01-.28,1.89-.52,2.64-.76l.4-.13c.78-.25,1.4-.44,1.84-.6l1.77-.62-.83.63s-.97.72-2.75,1.71c-1.56.88-4.18,2.21-7.79,3.53-2.02.72-3.76,1.26-5.48,1.69-1.86.49-3.98.93-6.3,1.29l-.49.07c-.94.13-1.91.27-2.89.34l-1.73.15-1.75.08c-.6.03-1.2.05-1.77.04h-1.16c6.1,16.54,11.52,37.91,16.14,63.52,5.87-3.08,20.47-11.56,33.65-25.78,22.24-24,29.75-51.92,22.31-82.99-7.79-32.55-38.02-60.51-85.1-78.71-42.68-16.5-85.89-20.32-107.98-16.89-33.7,5.24-83.19,69.9-115.94,112.69-14.04,18.34-25.12,32.82-31.98,39.04-7.27,6.59-11.05,18.26-10.37,32.02.7,14.28,5.89,29.08,14.61,41.67,6.75,9.76,27.1,33.45,65.09,33.45,16.36,0,35.99-4.4,59.21-16.18-7.51-23.55-16.44-41.04-20.04-47.64ZM353.06,412.88l-.13-.1.05-.06c-.52-1.09-1.1-2.2-1.72-3.32-2.65-4.73-5.91-9.24-9.68-13.4-1.75-1.95-3.68-3.88-5.91-5.89-1.95-1.75-4.08-3.46-6.51-5.22-1.22-.85-2.36-1.6-3.48-2.28-1.11-.66-2.38-1.4-3.61-1.82-.15-.05-.27-.08-.37-.1-.02.06-.04.15-.05.23-.05.43.01.99.21,1.77.35,1.37.99,2.71,1.51,3.72,1.08,2.11,2.51,4.3,4.5,6.89,1.56,2.02,3.33,4.07,5.43,6.27l.71.74-.52.99c-.98,1.85-2.01,3.84-3.15,6.06l-.11.21c-.97,1.93-1.98,3.92-2.94,5.89-1.19,2.47-2.08,4.36-2.86,6.15-.8,1.84-1.72,4.01-2.39,6.19-.17.56-.3,1.05-.4,1.5-.09.43-.16.84-.17,1.16.04,0,.1,0,.18,0,.56,0,1.46-.25,2.37-.67.84-.39,1.73-.91,2.65-1.53,1.71-1.17,3.36-2.56,4.89-4.14,1.46-1.48,2.83-3.16,4.08-4.99l8.15-11.93-4.2,13.78c-1.25,4.11-2.46,8.33-3.62,12.4l-.77,2.71c-.76,2.67-1.43,5.14-2.06,7.58-.32,1.22-.65,2.51-.96,3.79l-.22.95-.17.88c-.03.13-.03.2-.03.28l-.03.39c.01.09.01.19.02.29,0,.14,0,.27.04.4.04.35.18.65.42.94.25.27.54.45.92.54.76.23,1.85.16,3.05-.2,1.02-.3,2.11-.81,3.23-1.52.98-.61,1.97-1.37,2.95-2.26.83-.78,1.68-1.68,2.58-2.77.94-1.18,1.64-2.18,2.22-3.13.75-1.19,1.38-2.45,1.84-3.41.17-.35.32-.71.48-1.07.1-.24.21-.48.31-.71l1.79-4.61-.4,2.95c-.4,2.93-.66,5.74-.79,8.34-.07,1.5-.07,2.85,0,4.11.08,1.24.22,2.66.69,3.73.05.12.1.23.17.32l.08.13.12.13s.05.06.09.08c.02.02.04.03.07.06l.26.08s.03,0,.05.01c.03-.02.07-.02.09-.02h0l.13-.03c.16-.02.37-.09.59-.21.8-.41,1.67-1.26,2.44-2.41.62-.92,1.16-2.01,1.69-3.43.45-1.22.79-2.5,1.02-3.79.44-2.41.58-5.09.42-7.96-.14-2.57-.55-5.26-1.21-8-.6-2.6-1.39-5.22-2.36-7.79-.47-1.25-1.02-2.52-1.68-3.89ZM351.88,450.57h0s0,0,0,0h0ZM391.36,450.81c-6.44-8.96-22.68-24.01-32.11-32.46.05.16.1.32.16.48.07.23.15.45.22.69.27.88.55,1.84.83,2.94,4.3,4.07,25.47,24.33,29.95,32.53,4.51,8.27,7.03,69.03,7.51,81.8.44-.2.87-.39,1.28-.59.12-12.52.29-74.09-7.85-85.4ZM387.88,456.37c-3.59-6.59-19.4-22.2-26.42-28.96.26,1.75.42,3.39.48,4.98.14,3.01-.11,5.98-.74,8.82-.75,3.35-1.92,6.06-3.59,8.29-.89,1.14-2.02,2.41-3.74,3.18-.36.15-.84.33-1.44.37-.12.01-.24.02-.38.02-.16,0-.33-.03-.49-.05l-.24-.04c-.06-.01-.09-.02-.12-.03l-.32-.11c-.08-.03-.14-.05-.18-.07h0s-.37-.21-.37-.21c-.11-.06-.22-.13-.3-.21-.19-.17-.43-.38-.57-.6l-.23-.32-.16-.3c-.12-.22-.2-.43-.27-.63-.56-1.68-.54-3.29-.53-4.59.05-1.34.19-2.75.41-4.3.07-.44.14-.9.23-1.4-.13.29-.26.56-.39.82-.51,1.08-1.15,2.2-2.01,3.54-.71,1.08-1.57,2.16-2.54,3.23-2.29,2.42-4.47,3.97-6.88,4.88-.67.24-1.4.47-2.21.57-.83.13-1.67.12-2.49-.05-.93-.17-1.84-.65-2.51-1.31-.69-.68-1.19-1.59-1.37-2.49-.1-.33-.13-.65-.15-.95-.01-.11-.02-.23-.04-.37v-.66c.01-.22.02-.46.05-.61v-.03c-1.52.47-3.87,1.17-6.82,2-2.94.83-6.42,1.74-10.05,2.64-1.32.33-2.64.63-4.04.96l-1.66.39c-.68.15-1.37.3-2.06.45-1.26.28-2.56.56-3.85.82-.61.12-1.23.24-1.84.36-1.35.27-2.74.55-4.1.77l-1.02.18c-1.64.29-3.2.57-4.75.79l-.93.14c-1.56.24-3.04.47-4.48.63-.61.07-1.21.15-1.8.23-1.08.14-2.09.27-3.07.35l-4.12.39c-.8.06-1.54.1-2.2.14-.35.02-.67.04-.98.06l-2.77.16-.03-.32,2.75-.33c.31-.04.64-.08.99-.12.65-.08,1.38-.16,2.17-.27l4.08-.63c.96-.13,1.95-.32,3.01-.52.58-.11,1.18-.23,1.79-.33,1.42-.25,2.87-.56,4.41-.89l.91-.2c1.52-.31,3.04-.67,4.65-1.06l1.01-.24c1.32-.3,2.68-.66,3.99-1,.61-.16,1.21-.32,1.82-.47,1.25-.32,2.5-.68,3.72-1.02.69-.19,1.38-.39,2.06-.58l1.63-.48c1.36-.4,2.65-.79,3.93-1.19,3.55-1.1,6.93-2.21,9.77-3.2,3.01-1.04,5.38-1.91,6.83-2.45l1.88-.72c.09-.46.19-.92.29-1.37.54-2.48,1.13-5.01,1.8-7.74l.24-.98c.23-.96.47-1.92.72-2.87l.58-2.2c-1.25,1.12-2.47,2.07-3.73,2.89-1.16.75-2.25,1.35-3.34,1.83-1.27.52-2.56.98-4.24.96-.53-.02-.98-.1-1.41-.24-.29-.09-.53-.19-.75-.32l-.1-.05c-.09-.05-.17-.09-.28-.17-.14-.1-.29-.22-.42-.34l-.2-.19-.22-.25c-.39-.47-.52-.81-.63-1.13-.2-.65-.19-1.12-.19-1.54.03-.84.18-1.51.33-2.12.14-.55.31-1.13.54-1.81.8-2.34,1.79-4.53,2.73-6.55.91-1.93,1.93-3.96,3.13-6.21,1.15-2.17,2.25-4.15,3.35-6.05.96-1.67,1.97-3.38,3.01-5.07-1.73-2.12-3.19-4.07-4.47-5.97-.24-.36-.47-.72-.71-1.08v-.02s-.84.51-.84.51c-1.89,1.15-4.25,2.53-6.63,3.9-3.41,1.95-6.52,3.68-9.5,5.27-1.13.62-2.26,1.21-3.47,1.83-.65.34-1.3.67-1.95,1.02l-5.65,2.84c-.67.32-1.34.64-2.01.97-1.21.59-2.47,1.2-3.7,1.76-.66.3-1.32.6-1.98.9-1.24.57-2.41,1.11-3.6,1.61-.63.27-1.25.53-1.86.8-1.18.51-2.3,1-3.41,1.43-.6.24-1.19.47-1.77.71-1.05.42-2.04.82-3,1.18l-4.06,1.48c-.79.29-1.54.53-2.19.74-.35.11-.68.22-.98.32l-2.76.9-.11-.3,2.7-1.05c.3-.12.62-.24.97-.38.64-.24,1.36-.52,2.12-.85l3.96-1.71c.93-.4,1.89-.86,2.91-1.34.56-.26,1.13-.53,1.72-.81,1.08-.49,2.16-1.03,3.3-1.61.59-.3,1.19-.6,1.81-.9,1.15-.56,2.27-1.16,3.46-1.79.64-.34,1.28-.68,1.93-1.02,1.17-.62,2.37-1.28,3.52-1.93.66-.37,1.32-.73,1.98-1.1l5.44-3.14c.63-.38,1.25-.75,1.87-1.12,1.16-.69,2.26-1.34,3.34-2.02,2.85-1.74,5.83-3.62,9.11-5.75,2.32-1.51,4.56-3.01,6.33-4.22l.91-.63c-.59-1.08-1.06-2-1.47-2.88-.69-1.51-1.15-2.83-1.46-4.16-.14-.7-.3-1.48-.17-2.4.04-.28.11-.51.21-.71.05-.13.19-.33.29-.46.05-.06.07-.08.1-.1l.02.02s0-.03.02-.04h0s.03-.04.03-.04c.05-.07.14-.12.16-.12l.1-.06c.06-.03.16-.07.25-.09l.14-.02c.12-.02.2-.02.27,0,.13,0,.23.02.33.04h.07c.23.07.44.13.61.2,1.39.55,2.57,1.24,3.87,2.02,1.12.69,2.28,1.47,3.54,2.37,2.5,1.73,4.81,3.6,6.73,5.19,2.03,1.69,4.1,3.55,6.33,5.69,4.61,4.49,8.21,8.79,11,13.14.89,1.37,1.75,2.87,2.56,4.46,6.68,5.85,28.98,25.71,37.05,36.95,8.56,11.91,8.51,72.84,8.4,85.68,2.68-1.35,4.48-2.42,5.37-2.98.56-44.73-7.63-96.28-9.33-106.47-4.01-.9-7.94-2.03-11.71-3.34-15.78-5.51-29.42-14.49-40.54-26.68-13.67-14.99-20.58-31.89-20.4-40.96-.9.06-1.76.09-2.6.09-1.42,0-2.85-.08-4.26-.23-2.55,5.09-15.73,30.16-37.53,51.11-10.27,9.87-21.1,17.54-32.19,22.81,1.31,30.8-1.76,99.13-2.41,112.91,56.79,13.63,97.65,10.31,121.94,5.11,9.66-2.07,18.63-4.81,26.65-8.16-.92-25.41-3.6-75.03-7.21-81.65ZM239.45,347.64c4.99,3.11,7.61,7.98,8.77,10.75,14.04-12.24,26.15-17.23,33.85-19.25,5.14-1.35,9.47-1.75,12.78-1.75,2.23,0,4,.18,5.24.37.16-.6.39-1.19.68-1.78,4.85-6.92,12.13-8.63,12.2-8.64,3.09-.88,6.43-1.33,9.92-1.33,10.9,0,20.12,4.48,22.53,10.92,3.13-1.59,8.35-3.46,15.72-3.53h.41c8.49,0,17.59,2.37,27.06,7.06-.59-9.97-2.85-43.97-8.28-81.86-3.43-1.63-20.74-9.26-45.09-10.08-25.17-.84-63.25,5.63-101.71,41.24,4.65,20.14,6.64,39.61,5.92,57.88ZM322.89,330.17c-10.28,0-18.97,4.61-18.97,10.06s8.69,10.06,18.97,10.06,18.97-4.61,18.97-10.06-8.69-10.06-18.97-10.06ZM345.94,341.4c-.74,5.92-7.11,10.8-16.28,12.47-.57,6.49,5.13,23.13,19.3,38.67,13.88,15.22,45.64,39.24,102.31,29.06,27.09-4.86,45.85-16.31,55.76-34.04,6.43-11.51,9.09-25.52,7.89-41.68-2.14,17.83-11.26,26.89-18.66,31.37-6.89,4.17-15.73,6.38-25.55,6.38-20.11,0-42.87-8.97-60.89-23.98-21.91-18.26-38.36-22.09-48.32-22.09-8.39,0-13.63,2.65-15.55,3.84ZM299.91,341.95c-2.36-.4-8.52-1.01-17.1,1.29-10.55,2.84-27.05,10.76-45.81,32.37-20.61,23.74-56.98,19.76-80.24,2.2-11.16-8.43-18.88-19.64-21.73-31.58-1.2-5.01-1.55-10.18-1.06-15.38-4.92,12.15-9.57,29.89-4.97,47.28,5.25,19.87,21.26,35.65,47.59,46.9,35.8,15.3,69.97,7.69,101.55-22.63,20.06-19.26,32.66-42.08,36.19-48.92-7.93-1.89-13.44-6.29-14.42-11.54ZM244.89,361.39c-1.26-3.61-6.2-14.59-18.73-11.83-7.94,1.74-7.35,8.6-6.98,10.67,1.16,6.5,7.16,12.77,15.22,12.04,3.44-3.93,6.97-7.59,10.49-10.87ZM461.02,361c-.52-.45-1.17-1.01-1.87-1.66l-1.19-1.12-1.28-1.27c-.62-.6-1.23-1.27-1.88-1.97-.3-.32-.6-.65-.91-.98l-1.62-1.88c-.43-.5-.87-1.02-1.29-1.56l-1.47-1.87c-.33-.41-.64-.85-.94-1.27-.17-.23-.33-.47-.5-.7-.17-.24-.34-.47-.5-.7-.31-.43-.63-.87-.92-1.32l-1.35-2.09c-.65-.95-1.22-1.96-1.77-2.94-.25-.44-.5-.88-.76-1.32-.07-.13-.14-.25-.22-.38-.13-.23-.26-.45-.38-.69l-1.6-3.19c-.06-.12-.12-.24-.18-.36-.11-.22-.23-.45-.33-.68l-1.3-3.04c-.51-1.12-.9-2.21-1.27-3.26l-.17-.48c-.14-.42-.29-.82-.43-1.21-.25-.7-.49-1.36-.67-1.98l-1.32-4.67.3-.1,1.65,4.55c.21.6.49,1.23.79,1.89.17.38.35.77.52,1.17l.2.47c.44,1,.89,2.04,1.48,3.1l1.5,2.9c.12.21.24.42.37.63l2,3.35c.13.22.27.42.42.63.08.12.16.24.24.35.29.41.57.83.85,1.25.6.9,1.23,1.84,1.92,2.71l1.46,1.94c.31.41.65.81.98,1.2.18.22.37.44.55.65.18.22.36.43.54.65.32.38.64.78.98,1.15l1.56,1.71c.44.49.9.96,1.35,1.41l1.69,1.69c.33.3.65.6.96.89.66.62,1.29,1.21,1.91,1.73l1.04.9,1.47,1.2c.68.55,1.28.99,1.81,1.39l.18.13c.28.2.52.38.74.53.93-.79,1.86-1.6,2.7-2.35-14-11.78-26.08-37.14-29.59-44.97l-1.85,1.48c-10.26,9.91-31.17,25.38-39.9,31.73,5.45,3.29,11.09,7.35,16.77,12.08,8.8,7.33,18.96,13.33,29.39,17.33,6.8-3.06,14.21-8.54,19.3-12.66l-.16-.13ZM475.02,319.72c-.4-.18-.71-.51-.87-.94-.16-.45-.13-.96.09-1.4,3.83-8.6,6.8-19.62,2.58-22.36-.94-.61-1.54-.49-1.96-.31-1.55.64-3.24,3.04-4.86,6.92-1.01,2.49-1.7,3.88-2.44,5.36-.31.63-.63,1.27-.99,2.02-.26.54-.63.82-1.16.85-.51.03-1-.18-1.33-.59-.35-.44-.47-1.02-.32-1.56.5-1.73,1.28-4.38,2.2-7.22,1.76-5.44,2.01-11.35.61-14.38-.44-.95-1.03-1.52-1.86-1.81-.95-.33-1.77-.25-2.58.25-3.65,2.27-5.92,11.45-6.69,16.57l.15.17c.5.58,1.26,1.49,2.19,2.63,2.06,2.53,4.34,5.52,6.25,8.22,1.04,1.46,2.09,2.98,3.1,4.54.5.75.97,1.5,1.37,2.13.4.63.82,1.3,1.19,1.93l.98,1.64,1.35,2.39-.27.18-1.64-2.19-1.18-1.49c-.4-.52-.86-1.07-1.41-1.74-.46-.57-1.02-1.23-1.61-1.91-1.19-1.39-2.41-2.75-3.62-4.05-2.21-2.39-4.81-5.02-7.12-7.22-1.03-.98-1.88-1.76-2.52-2.34l-7.24,1.36-.59-1.69c-2.18-6.21-6.78-14.8-9.78-14.8-.04,0-.09,0-.1,0-.01,0-.04.05-.09.18-1.23,2.96,1.87,12.24,3.96,15.95.13.3,13.27,29.82,27.12,44.34,3.13-3.13,17.14-18.1,17.25-35.78-.12-.07-.27-.13-.45-.11h-.08c-1.48.06-3.05,1.73-4.69,4.96-.28.62-1.56,1.92-2.93,1.31ZM284.32,574.02l-.47-21.77c-1.25-.16-2.5-.33-3.77-.51l-4.06,15.24-.05.18-2.22-.97c-.3-.13-30.2-12.76-49.64,6.38l60.22,1.46Z"/>
        <path class="cls-10" d="M334.84,264.6c.68-.27,1.46-.59,2.34-.8.87-.25,1.84-.44,2.87-.58.52-.06,1.05-.11,1.59-.15.54-.02,1.1-.01,1.67,0,.56.05,1.14.09,1.71.18.57.09,1.15.2,1.73.32,1.15.26,2.31.54,3.45.86,1.15.3,2.27.67,3.36,1.05,1.09.39,2.15.82,3.15,1.27,2.01.89,3.8,1.88,5.29,2.78,2.99,1.79,4.74,3.33,4.74,3.33l-.22.31s-.49-.28-1.39-.72c-.9-.43-2.17-1.06-3.75-1.69-.79-.32-1.65-.64-2.56-.96-.92-.31-1.88-.64-2.89-.93-1.01-.3-2.06-.56-3.12-.81-1.07-.24-2.15-.47-3.25-.62-1.09-.17-2.19-.25-3.27-.3-.54-.03-1.07,0-1.6-.04-.53,0-1.04-.02-1.55-.03-.51,0-1-.02-1.49-.06-.49-.01-.96-.04-1.43-.07-.94-.03-1.83-.06-2.64-.09-.83-.04-1.59-.01-2.28-.05-.35,0-.67,0-.97,0-.3,0-.59-.03-.84-.02-1.01,0-1.63-.05-1.63-.05l-.12-.37s.48-.37,1.39-.92c.46-.27,1.04-.54,1.71-.85Z"/>
        <path class="cls-10" d="M302.58,272.45c-.25,0-.54.02-.84.02-.3,0-.62,0-.97,0-.69.04-1.45.01-2.28.05-.82.03-1.71.06-2.64.09-.47.03-.94.06-1.43.07-.49.04-.98.05-1.49.06-.51.02-1.02.04-1.55.03-.52.03-1.06.01-1.6.04-1.08.04-2.18.12-3.27.3-1.09.16-2.18.38-3.25.62-1.06.26-2.12.51-3.12.81-1.01.28-1.97.62-2.89.93-.91.32-1.78.64-2.56.96-1.58.63-2.85,1.26-3.75,1.69-.9.44-1.39.72-1.39.72l-.22-.31s1.75-1.53,4.74-3.33c1.49-.91,3.28-1.89,5.29-2.78,1-.45,2.05-.89,3.15-1.27,1.09-.38,2.22-.75,3.36-1.05,1.14-.32,2.3-.6,3.45-.86.58-.13,1.15-.23,1.73-.32.57-.09,1.15-.12,1.71-.18.57-.02,1.12-.02,1.67,0,.54.03,1.08.09,1.59.15,1.03.14,2,.33,2.87.58.88.22,1.66.54,2.34.8.67.31,1.25.58,1.71.85.91.55,1.39.92,1.39.92l-.12.37s-.62.05-1.63.05Z"/>
        <path class="cls-10" d="M240.45,361.27c.2.52.25.84.25.84,0,0-.24-.2-.66-.54-.2-.17-.47-.36-.74-.6-.3-.22-.61-.47-.97-.72-.35-.27-.73-.53-1.14-.81-.4-.28-.85-.54-1.28-.82-.47-.24-.91-.55-1.41-.77-.24-.12-.49-.24-.73-.37l-.76-.31c-.49-.25-1.02-.38-1.53-.58-.51-.2-1.03-.28-1.53-.44-.5-.15-1.01-.2-1.48-.32-.48-.13-.94-.14-1.37-.22-.43-.05-.84-.17-1.2-.17-.36-.02-.68-.06-.95-.09-.54-.06-.86-.12-.86-.12,0,0,.27-.16.77-.38.25-.11.56-.25.92-.38.36-.16.78-.23,1.25-.34.47-.09.98-.23,1.53-.23.55,0,1.14-.07,1.74,0,.3.03.61.07.92.11.31.04.63.08.93.18.62.17,1.26.33,1.85.61l.89.4c.28.16.56.33.83.49.28.16.54.33.79.53.25.19.49.38.73.57.45.41.87.8,1.23,1.22.36.42.68.82.94,1.23.28.39.47.79.65,1.12.17.35.3.65.4.92Z"/>
        <path class="cls-10" d="M373.3,448.04c3.4,0,6.17,2.77,6.17,6.17s-2.77,6.17-6.17,6.17-6.17-2.77-6.17-6.17,2.77-6.17,6.17-6.17ZM373.3,456.55c1.28,0,2.33-1.04,2.33-2.33s-1.04-2.33-2.33-2.33-2.33,1.05-2.33,2.33,1.04,2.33,2.33,2.33Z"/>
        <path class="cls-10" d="M382.61,490.96c3.4,0,6.17,2.77,6.17,6.17s-2.77,6.17-6.17,6.17-6.17-2.77-6.17-6.17,2.77-6.17,6.17-6.17ZM382.61,499.47c1.28,0,2.33-1.04,2.33-2.33s-1.04-2.33-2.33-2.33-2.33,1.04-2.33,2.33,1.04,2.33,2.33,2.33Z"/>
        <path class="cls-10" d="M330.78,494.2c3.4,0,6.17,2.77,6.17,6.17s-2.77,6.17-6.17,6.17-6.17-2.77-6.17-6.17,2.77-6.17,6.17-6.17ZM330.78,502.7c1.28,0,2.33-1.04,2.33-2.33s-1.04-2.33-2.33-2.33-2.33,1.04-2.33,2.33,1.04,2.33,2.33,2.33Z"/>
        <path class="cls-10" d="M327.54,452.5c3.4,0,6.17,2.77,6.17,6.17s-2.77,6.17-6.17,6.17-6.17-2.77-6.17-6.17,2.77-6.17,6.17-6.17ZM327.54,461c1.28,0,2.33-1.04,2.33-2.33s-1.04-2.33-2.33-2.33-2.33,1.04-2.33,2.33,1.05,2.33,2.33,2.33Z"/>
        <g>
          <path class="cls-10" d="M352.53,302.53c3.63,0,6.38,4.31,6.38,10.02s-2.74,10.02-6.38,10.02-6.38-4.31-6.38-10.02,2.74-10.02,6.38-10.02Z"/>
          <path class="cls-10" d="M282.08,309.01c3.64,0,6.38,4.31,6.38,10.02s-2.74,10.02-6.38,10.02-6.38-4.31-6.38-10.02,2.74-10.02,6.38-10.02Z"/>
        </g>
      </g>
    </g>
  </g>
</svg>